<svg width="1920" height="952" viewBox="0 0 1920 952" fill="none" xmlns="http://www.w3.org/2000/svg">
<mask id="mask0" mask-type="alpha" maskUnits="userSpaceOnUse" x="0" y="-734" width="2075" height="1686">
<path d="M0 0H930L920 474.5L1371 819L1941.5 618.5V912L0 952V0Z" fill="#C4C4C4"/>
<path d="M921.294 222.055L920.972 224.245L920.846 226.455C903.041 537.068 1166.82 789 1467.96 789C1768.66 789 2012.76 546.699 2015.72 246.685C2032.8 165.322 2025.13 68.371 2002.28 -28.9064C1978.72 -129.147 1938.11 -233.668 1886.58 -328.615C1835.17 -423.359 1771.81 -510.562 1701.65 -574.773C1632.2 -638.33 1550.84 -684 1464.4 -684C1376.67 -684 1301.78 -637.219 1240.72 -572.688C1179.57 -508.054 1127.59 -420.916 1084.48 -327.954C998.171 -141.852 942.329 78.7643 921.294 222.055Z" stroke="black" stroke-width="100"/>
</mask>
<g mask="url(#mask0)">
<path d="M0 768L474.5 622.5L786.5 735.5L1920 768V952H0V768Z" fill="white"/>
<circle cx="1456" cy="219" r="623" stroke="white" stroke-width="200"/>
<path d="M-37.9954 -117.262L1881.09 -176.471L1900.74 460.226C1827.31 615.082 1690.62 730.711 1525.73 777.446L1470.3 793.158L1331.14 819.251C1237.22 836.862 1141.03 838.822 1046.47 825.052C994.394 817.467 943.112 805.156 893.265 788.27L712.397 726.999C489.012 653.067 243.162 703.599 67.046 859.644L-5.86186 924.242L-37.9954 -117.262Z" fill="#E9E5FF"/>
<path d="M0 -190H1920V447C1841.83 599.518 1701.64 710.877 1535.39 752.505L1479.5 766.5L1339.6 788.289C1245.18 802.995 1148.98 801.988 1054.89 785.309C1003.07 776.122 952.195 762.235 902.892 743.819L724 677C503.001 596.215 255.71 639.141 74.8653 789.68L0 852V-190Z" fill="url(#paint0_linear)"/>
<path d="M1925.74 243.184C1925.74 518.12 1702.88 741 1427.96 741C1153.04 741 914.744 510.782 930.764 231.317C971.702 -47.5553 1149.48 -632 1424.4 -632C1699.32 -632 1991.01 -45.7753 1925.74 243.184Z" fill="#AC9DFD"/>
</g>
<defs>
<linearGradient id="paint0_linear" x1="-3.16473e-06" y1="-82.5" x2="1478" y2="382" gradientUnits="userSpaceOnUse">
<stop stop-color="#DF6598"/>
<stop offset="1" stop-color="#857BE4"/>
</linearGradient>
</defs>
</svg>
