<svg width="64" height="64" fill="none" xmlns="http://www.w3.org/2000/svg"><g clip-path="url(#clip0)"><path d="M58.945 49.244h-1.459c-.403.567.736-1.012.972-1.456a31.293 31.293 0 004.788-16.602c0-8.33-3.244-16.162-9.134-22.052C48.222 3.244 40.392 0 32.061 0c-6.823 0-13.303 2.163-18.738 6.255a.932.932 0 101.12 1.49A29.04 29.04 0 0131.13 1.88v27.59L7.802 14.705a29.627 29.627 0 013.536-4.264.932.932 0 00-1.317-1.318c-5.227 5.22-8.37 11.969-9.018 19.238a31.295 31.295 0 00-.042 5.143c.442 6.095 2.628 11.83 6.39 16.71 3.99 5.174 9.592 9.018 15.819 10.87v.897c0 1.113.906 2.019 2.019 2.019h9.803c.4 0 .772-.119 1.087-.32.313.201.686.32 1.087.32h9.802c.4 0 .773-.119 1.087-.32.314.201.687.32 1.087.32h9.803a2.021 2.021 0 002.018-2.019V51.262a2.02 2.02 0 00-2.018-2.018zm-29.9 0h-4.011v-2.28c0-.085.07-.154.155-.154h9.803c.085 0 .154.07.154.155v2.279h-2.124a.932.932 0 100 1.863h2.124v2.434H25.034v-2.434h4.01a.932.932 0 100-1.863zm7.965-2.28v-.154h10.113v2.433H37.01v-2.278zm10.113-2.018H37.01v-2.433h10.113v2.433zM37.01 51.107h10.113v2.434H37.01v-2.434zm10.113-10.459H37.01V38.37c0-.086.07-.155.156-.155h9.802c.085 0 .155.07.155.155v2.278zm-22.09 14.757h10.113v2.433H25.034v-2.433zm11.977 0h10.113v2.433H37.01v-2.433zm11.977 0H59.1v2.433H48.987v-2.433zM59.1 51.262v2.279H48.987v-2.279c0-.085.07-.155.155-.155h9.803c.085 0 .155.07.155.155zm-9.958-2.018c-.052 0-.104.004-.155.008v-6.273l7.35 4.652c-.373.55-.765 1.088-1.175 1.613h-6.02zM2.798 33.032c-.02-.305-.032-.61-.042-.914h20.52L3.219 36.447a29.152 29.152 0 01-.421-3.415zm.815 5.237l23.825-5.143L7.145 46.612a29.394 29.394 0 01-3.532-8.343zM6.806 16.28l22.075 13.972H2.756a29.195 29.195 0 014.05-13.973zm1.371 31.884l23.904-15.886 3.695 2.338a.932.932 0 10.997-1.575l-3.78-2.392V1.88c15.738.495 28.39 13.45 28.39 29.306a29.426 29.426 0 01-4.052 14.87l-8.344-5.283V38.37a2.021 2.021 0 00-2.019-2.019h-9.803a2.022 2.022 0 00-2.019 2.02v6.583a2.028 2.028 0 00-.154-.008h-9.803a2.021 2.021 0 00-2.02 2.019v12.168c-6.18-1.964-11.383-5.89-14.992-10.968zm26.815 13.97h-9.803a.155.155 0 01-.155-.154v-2.278h10.112v2.278c0 .085-.07.155-.154.155zm11.976 0h-9.803a.155.155 0 01-.155-.154v-2.278h10.113v2.278c0 .085-.07.155-.155.155zM59.1 61.98c0 .085-.07.155-.155.155h-9.803a.155.155 0 01-.155-.155v-2.278H59.1v2.278z" fill="#FF9458"/></g><defs><clipPath id="clip0"><path fill="#fff" d="M0 0h64v64H0z"/></clipPath></defs></svg>