<svg width="12" height="12" viewBox="0 0 12 12" fill="none" xmlns="http://www.w3.org/2000/svg">
<path d="M6.00018 5.86879C7.33437 5.86879 8.41605 4.55503 8.41605 2.93441C8.41605 1.31376 8.06092 0 6.00018 0C3.93943 0 3.58423 1.31376 3.58423 2.93441C3.58423 4.55503 4.66591 5.86879 6.00018 5.86879Z" fill="white"/>
<path d="M1.437 10.3494C1.43659 10.2505 1.43618 10.3215 1.437 10.3494V10.3494Z" fill="white"/>
<path d="M10.563 10.4264C10.5643 10.3994 10.5634 10.2387 10.563 10.4264V10.4264Z" fill="white"/>
<path d="M10.5579 10.2308C10.5132 7.40765 10.1445 6.60321 7.32301 6.09399C7.32301 6.09399 6.92585 6.60009 6.00013 6.60009C5.07442 6.60009 4.67718 6.09399 4.67718 6.09399C1.8865 6.59765 1.49537 7.39017 1.44394 10.1391C1.43972 10.3636 1.43777 10.3754 1.43701 10.3493C1.43718 10.3981 1.43739 10.4884 1.43739 10.6459C1.43739 10.6459 2.10911 12.0001 6.00013 12.0001C9.89108 12.0001 10.5629 10.6459 10.5629 10.6459C10.5629 10.5447 10.5629 10.4744 10.563 10.4265C10.5623 10.4426 10.5608 10.4114 10.5579 10.2308Z" fill="white"/>
</svg>
