<svg width="40" height="40" viewBox="0 0 40 40" fill="none" xmlns="http://www.w3.org/2000/svg">
<circle cx="20" cy="20" r="20" fill="#E9E5FF"/>
<g clip-path="url(#clip0)">
<path d="M15.7785 24.7568C16.205 24.7568 16.5507 24.4111 16.5507 23.9846C16.5507 23.5581 16.205 23.2124 15.7785 23.2124C15.3521 23.2124 15.0063 23.5581 15.0063 23.9846C15.0063 24.4111 15.3521 24.7568 15.7785 24.7568Z" fill="#877BE3"/>
<path d="M18.6106 24.7568C19.037 24.7568 19.3827 24.4111 19.3827 23.9846C19.3827 23.5581 19.037 23.2124 18.6106 23.2124C18.1841 23.2124 17.8384 23.5581 17.8384 23.9846C17.8384 24.4111 18.1841 24.7568 18.6106 24.7568Z" fill="#877BE3"/>
<path d="M21.3903 24.7568C21.8168 24.7568 22.1625 24.4111 22.1625 23.9846C22.1625 23.5581 21.8168 23.2124 21.3903 23.2124C20.9639 23.2124 20.6182 23.5581 20.6182 23.9846C20.6182 24.4111 20.9639 24.7568 21.3903 24.7568Z" fill="#877BE3"/>
<path d="M24.4787 24.7568C24.9052 24.7568 25.2509 24.4111 25.2509 23.9846C25.2509 23.5581 24.9052 23.2124 24.4787 23.2124C24.0523 23.2124 23.7065 23.5581 23.7065 23.9846C23.7065 24.4111 24.0523 24.7568 24.4787 24.7568Z" fill="#877BE3"/>
<path d="M21.3903 22.131C21.8168 22.131 22.1625 21.7853 22.1625 21.3589C22.1625 20.9324 21.8168 20.5867 21.3903 20.5867C20.9639 20.5867 20.6182 20.9324 20.6182 21.3589C20.6182 21.7853 20.9639 22.131 21.3903 22.131Z" fill="#877BE3"/>
<path d="M25.3471 13.5441H25.2511C25.2508 12.691 24.5595 12 23.7067 12C22.8538 12 22.1622 12.691 22.1622 13.5441H18.0952C18.0949 12.691 17.4036 12 16.5508 12C15.698 12 15.0064 12.691 15.0064 13.5441H14.6518C13.3203 13.5441 12.2432 14.6246 12.2432 15.9531V15.9546V25.5911C12.2432 26.9211 13.3205 28 14.6518 28H25.3471C26.6772 28 27.7573 26.9211 27.7573 25.5911V15.9546V15.953C27.7573 14.6246 26.6771 13.5441 25.3471 13.5441ZM26.1397 25.5469C26.1397 25.9435 25.8172 26.2675 25.4197 26.2675H14.6809C14.2833 26.2675 13.9596 25.9435 13.9596 25.5469V19.3251H26.1397V25.5469Z" fill="#877BE3"/>
<path d="M24.4787 22.131C24.9052 22.131 25.2509 21.7853 25.2509 21.3589C25.2509 20.9324 24.9052 20.5867 24.4787 20.5867C24.0523 20.5867 23.7065 20.9324 23.7065 21.3589C23.7065 21.7853 24.0523 22.131 24.4787 22.131Z" fill="#877BE3"/>
</g>
<defs>
<clipPath id="clip0">
<rect width="16" height="16" fill="white" transform="translate(12 12)"/>
</clipPath>
</defs>
</svg>
