<svg width="40" height="40" viewBox="0 0 40 40" fill="none" xmlns="http://www.w3.org/2000/svg">
<circle cx="20" cy="20" r="20" fill="#FDF3EA"/>
<g clip-path="url(#clip0)">
<path d="M17.2701 22.4179C17.2701 20.9165 19.2171 20.6763 19.2171 19.8492C19.2171 19.4858 18.9358 19.2685 18.5839 19.2685C18.0973 19.2685 17.8332 19.7613 17.8332 19.7613L17.2701 19.386C17.2701 19.386 17.6512 18.5531 18.6483 18.5531C19.3814 18.5531 20.0032 18.9987 20.0032 19.7847C20.0032 21.1219 18.1383 21.3506 18.1206 22.1367H20.0676V22.7876H17.3054C17.2878 22.6529 17.2701 22.5354 17.2701 22.4179ZM20.4917 21.2508L22.2864 18.6233H23.1837V21.0865H23.7233V21.7145H23.1837V22.7876H22.4387V21.7145H20.4917V21.2508ZM22.4387 21.0865V19.7967C22.4387 19.5914 22.4683 19.3626 22.4683 19.3626H22.4563C22.4563 19.3626 22.3627 19.5851 22.251 19.7437L21.2892 21.0751V21.0865H22.4387ZM26.1118 20.8658L25.9669 21.3849C25.1432 24.3355 22.1375 26.1974 19.1642 25.4595C16.3085 24.7507 14.5336 21.9835 14.9604 19.1643L15.8209 19.4045C16.0203 19.4601 16.2053 19.279 16.1538 19.0784L15.218 15.4345C15.1665 15.2339 14.9172 15.1643 14.7692 15.3092L12.081 17.9414C11.933 18.0863 11.9974 18.3371 12.1969 18.3928L13.1335 18.6542C12.4345 22.4679 14.7872 26.2661 18.6265 27.2658C22.6131 28.304 26.6794 25.8363 27.7871 21.8685L27.9256 21.3722C27.9656 21.2291 27.882 21.0807 27.7388 21.0407L26.4432 20.679C26.3001 20.6391 26.1517 20.7227 26.1118 20.8658ZM27.6427 18.5952L26.284 18.7718C26.1367 18.7909 26.0328 18.9258 26.0519 19.0732L26.1055 19.4853C26.1246 19.6326 26.2596 19.7365 26.4069 19.7174L27.7656 19.5409C27.9129 19.5217 28.0168 19.3868 27.9977 19.2394L27.9441 18.8273C27.925 18.68 27.7901 18.5761 27.6427 18.5952ZM26.5968 16.0278L25.4032 16.7005C25.2737 16.7734 25.2279 16.9375 25.3009 17.0669L25.5049 17.4289C25.5778 17.5584 25.7419 17.6042 25.8713 17.5312L27.0649 16.8586C27.1944 16.7856 27.2402 16.6216 27.1672 16.4921L26.9632 16.1301C26.8903 16.0007 26.7262 15.9549 26.5968 16.0278ZM24.6653 14.0392L23.8105 15.11C23.7178 15.2261 23.7368 15.3954 23.8529 15.488L24.1777 15.7473C24.2938 15.84 24.4631 15.821 24.5558 15.7048L25.4105 14.634C25.5032 14.5179 25.4842 14.3486 25.3681 14.2559L25.0433 13.9967C24.9272 13.9041 24.7579 13.923 24.6653 14.0392ZM22.1294 12.9189L21.738 14.2319C21.6956 14.3743 21.7766 14.5241 21.919 14.5666L22.3172 14.6853C22.4596 14.7277 22.6094 14.6467 22.6519 14.5043L23.0432 13.1913C23.0857 13.0489 23.0047 12.8991 22.8623 12.8566L22.4641 12.7379C22.3217 12.6955 22.1718 12.7765 22.1294 12.9189ZM19.3585 12.8301L19.4875 14.1941C19.5015 14.3421 19.6327 14.4506 19.7806 14.4367L20.1943 14.3975C20.3423 14.3835 20.4508 14.2523 20.4368 14.1044L20.3078 12.7403C20.2939 12.5924 20.1626 12.4839 20.0147 12.4979L19.601 12.537C19.4531 12.551 19.3445 12.6822 19.3585 12.8301ZM16.7562 13.7858L17.3867 15.0022C17.4551 15.1341 17.6175 15.1856 17.7494 15.1172L18.1183 14.926C18.2502 14.8576 18.3017 14.6952 18.2333 14.5633L17.6028 13.347C17.5344 13.2151 17.372 13.1636 17.2401 13.2319L16.8712 13.4232C16.7393 13.4915 16.6878 13.6539 16.7562 13.7858Z" fill="#FF9458"/>
</g>
<defs>
<clipPath id="clip0">
<rect width="16" height="16" fill="white" transform="translate(12 12)"/>
</clipPath>
</defs>
</svg>
