<svg width="70" height="66" viewBox="0 0 70 66" fill="none" xmlns="http://www.w3.org/2000/svg">
<path d="M32.6666 45.8445V20.1779C32.6666 18.1945 31.15 16.6779 29.1666 16.6779H3.5C1.51662 16.6779 0 18.1945 0 20.1779V45.8445C0 47.8279 1.51662 49.3445 3.5 49.3445H29.1666C31.15 49.3445 32.6666 47.8279 32.6666 45.8445ZM2.33338 45.8445V20.1779C2.33338 19.4779 2.8 19.0112 3.5 19.0112H29.1666C29.8666 19.0112 30.3332 19.4779 30.3332 20.1779V45.8445C30.3332 46.5445 29.8666 47.0111 29.1666 47.0111H3.5C2.8 47.0113 2.33338 46.5445 2.33338 45.8445Z" fill="#FF897B"/>
<path d="M5.83337 24.8446H17.5C18.2 24.8446 18.6666 24.378 18.6666 23.678C18.6666 22.978 18.2 22.5114 17.5 22.5114H5.83337C5.13337 22.5114 4.66675 22.978 4.66675 23.678C4.66675 24.378 5.13337 24.8446 5.83337 24.8446Z" fill="#FF897B"/>
<path d="M22.1666 27.1779H9.33337C8.63337 27.1779 8.16675 27.6445 8.16675 28.3445C8.16675 29.0445 8.63337 29.5111 9.33337 29.5111H22.1667C22.8667 29.5111 23.3334 29.0445 23.3334 28.3445C23.3334 27.6445 22.8666 27.1779 22.1666 27.1779Z" fill="#FF897B"/>
<path d="M17.5 31.8445H5.83337C5.13337 31.8445 4.66675 32.3111 4.66675 33.0111C4.66675 33.7111 5.13337 34.1777 5.83337 34.1777H17.5C18.2 34.1777 18.6666 33.7111 18.6666 33.0111C18.6666 32.3111 18.2 31.8445 17.5 31.8445Z" fill="#FF897B"/>
<path d="M11.6666 37.6778C11.6666 36.9778 11.2 36.5112 10.5 36.5112H5.83337C5.13337 36.5112 4.66675 36.9778 4.66675 37.6778C4.66675 38.3778 5.13337 38.8445 5.83337 38.8445H10.5C11.2 38.8445 11.6666 38.3778 11.6666 37.6778Z" fill="#FF897B"/>
<path d="M17.5 41.1779H8.16662C7.46662 41.1779 7 41.6445 7 42.3445C7 43.0445 7.46662 43.5111 8.16662 43.5111H17.5C18.2 43.5111 18.6666 43.0445 18.6666 42.3445C18.6666 41.6445 18.2 41.1779 17.5 41.1779Z" fill="#FF897B"/>
<path d="M66.5 16.6779H40.8334C38.85 16.6779 37.3334 18.1945 37.3334 20.1779V45.8445C37.3334 47.8279 38.85 49.3445 40.8334 49.3445H66.5C68.4834 49.3445 70 47.8279 70 45.8445V20.1779C70 18.1945 68.4834 16.6779 66.5 16.6779ZM67.6666 45.8445C67.6666 46.5445 67.2 47.0111 66.5 47.0111H40.8334C40.1334 47.0111 39.6668 46.5445 39.6668 45.8445V20.1779C39.6668 19.4779 40.1334 19.0112 40.8334 19.0112H66.5C67.2 19.0112 67.6666 19.4779 67.6666 20.1779V45.8445Z" fill="#FF897B"/>
<path d="M43.1666 24.8446H54.8332C55.5332 24.8446 55.9999 24.378 55.9999 23.678C55.9999 22.978 55.5332 22.5114 54.8332 22.5114H43.1666C42.4666 22.5114 42 22.978 42 23.678C42 24.378 42.4666 24.8446 43.1666 24.8446Z" fill="#FF897B"/>
<path d="M59.5 27.1779H46.6666C45.9666 27.1779 45.5 27.6445 45.5 28.3445C45.5 29.0445 45.9666 29.5111 46.6666 29.5111H59.5C60.2 29.5111 60.6666 29.0445 60.6666 28.3445C60.6666 27.6445 60.2 27.1779 59.5 27.1779Z" fill="#FF897B"/>
<path d="M54.8334 31.8445H43.1667C42.4667 31.8445 42.0001 32.3111 42.0001 33.0111C42.0001 33.7111 42.4667 34.1777 43.1667 34.1777H54.8334C55.5334 34.1777 56 33.7111 56 33.0111C56 32.3111 55.5334 31.8445 54.8334 31.8445Z" fill="#FF897B"/>
<path d="M49 37.6778C49 36.9778 48.5334 36.5112 47.8334 36.5112H43.1667C42.4667 36.5112 42.0001 36.9778 42.0001 37.6778C42.0001 38.3778 42.4667 38.8445 43.1667 38.8445H47.8334C48.5334 38.8445 49 38.3778 49 37.6778Z" fill="#FF897B"/>
<path d="M54.8334 41.1779H45.5C44.8 41.1779 44.3334 41.6445 44.3334 42.3445C44.3334 43.0445 44.8 43.5111 45.5 43.5111H54.8334C55.5334 43.5111 56 43.0445 56 42.3445C56 41.6445 55.5334 41.1779 54.8334 41.1779Z" fill="#FF897B"/>
<path d="M16.3334 10.8445C16.45 10.8445 16.6834 10.8445 16.8 10.7279C23.45 7.46125 28.7 6.17787 35 6.17787C40.4575 6.17787 45.1277 7.14201 50.6021 9.52324L45.5 11.1945C44.9166 11.4279 44.5666 12.0111 44.8 12.5945C44.9166 13.0611 45.3834 13.4111 45.85 13.4111C45.9666 13.4111 46.0834 13.4111 46.2 13.2945L53.7552 10.8137C54.1703 10.7839 54.5553 10.5482 54.7166 10.1445C54.7757 10.0264 54.8045 9.87843 54.8038 9.73078C54.8141 9.48154 54.7502 9.23572 54.6198 9.03296L52.15 1.51125C51.9166 0.927868 51.3334 0.577868 50.75 0.694626C50.1666 0.928005 49.8166 1.628 50.05 2.21125L51.7936 7.53384C45.9413 4.94056 40.8809 3.84449 35 3.84449C28.35 3.84449 22.75 5.24449 15.8666 8.62787C15.2832 8.86125 15.05 9.56125 15.2832 10.1445C15.5166 10.6112 15.8666 10.8445 16.3334 10.8445Z" fill="#FF897B"/>
<path d="M53.2 55.2944C46.55 58.5611 41.3 59.8444 35 59.8444C29.5759 59.8444 24.9296 58.8918 19.4987 56.5425L24.7334 54.8277C25.3167 54.5943 25.6667 53.8943 25.4334 53.3111C25.2 52.7278 24.5 52.3777 23.9167 52.6111L16.1001 55.1777C15.9702 55.221 15.8566 55.2804 15.7589 55.3498C15.5498 55.4634 15.378 55.6413 15.2834 55.8777C15.1338 56.2517 15.1769 56.6731 15.3802 56.9892L17.85 64.5109C17.9666 64.9776 18.4334 65.3276 18.9 65.3276C19.1334 65.3276 19.25 65.3276 19.4834 65.3276C20.0667 65.0942 20.4167 64.3942 20.1834 63.8109L18.4792 58.6086C24.2166 61.1158 29.2105 62.1776 35 62.1776C41.65 62.1776 47.25 60.7776 54.1334 57.3942C54.7167 57.1608 54.95 56.4608 54.7167 55.8775C54.4834 55.2944 53.7834 55.0612 53.2 55.2944Z" fill="#FF897B"/>
</svg>
