<svg width="70" height="70" fill="none" xmlns="http://www.w3.org/2000/svg"><path d="M32.667 47.844V22.178c0-1.983-1.517-3.5-3.5-3.5H3.5c-1.983 0-3.5 1.517-3.5 3.5v25.666c0 1.984 1.517 3.5 3.5 3.5h25.667c1.983 0 3.5-1.516 3.5-3.5zm-30.334 0V22.178c0-.7.467-1.167 1.167-1.167h25.667c.7 0 1.166.467 1.166 1.167v25.666c0 .7-.466 1.167-1.166 1.167H3.5c-.7 0-1.167-.467-1.167-1.167z" fill="#877BE3"/><path d="M5.833 26.845H17.5c.7 0 1.167-.467 1.167-1.167s-.467-1.167-1.167-1.167H5.833c-.7 0-1.166.467-1.166 1.167s.466 1.167 1.166 1.167zm16.334 2.333H9.333c-.7 0-1.166.466-1.166 1.166s.466 1.167 1.166 1.167h12.834c.7 0 1.166-.466 1.166-1.166s-.466-1.167-1.166-1.167zM17.5 33.844H5.833c-.7 0-1.166.467-1.166 1.167s.466 1.167 1.166 1.167H17.5c.7 0 1.167-.467 1.167-1.167s-.467-1.167-1.167-1.167zm-5.833 5.834c0-.7-.467-1.167-1.167-1.167H5.833c-.7 0-1.166.467-1.166 1.167s.466 1.166 1.166 1.166H10.5c.7 0 1.167-.466 1.167-1.166zm5.833 3.5H8.167c-.7 0-1.167.467-1.167 1.166 0 .7.467 1.167 1.167 1.167H17.5c.7 0 1.167-.467 1.167-1.167s-.467-1.166-1.167-1.166zm49-24.5H40.834c-1.984 0-3.5 1.517-3.5 3.5v25.666c0 1.984 1.516 3.5 3.5 3.5H66.5c1.984 0 3.5-1.516 3.5-3.5V22.178c0-1.983-1.516-3.5-3.5-3.5zm1.167 29.166c0 .7-.467 1.167-1.167 1.167H40.834c-.7 0-1.167-.467-1.167-1.167V22.178c0-.7.466-1.167 1.166-1.167H66.5c.7 0 1.167.467 1.167 1.167v25.666z" fill="#877BE3"/><path d="M43.167 26.845h11.666c.7 0 1.167-.467 1.167-1.167s-.467-1.167-1.167-1.167H43.167c-.7 0-1.167.467-1.167 1.167s.467 1.167 1.167 1.167zM59.5 29.178H46.667c-.7 0-1.167.466-1.167 1.166s.467 1.167 1.167 1.167H59.5c.7 0 1.167-.466 1.167-1.166s-.467-1.167-1.167-1.167zm-4.666 4.666H43.166c-.7 0-1.167.467-1.167 1.167s.467 1.167 1.167 1.167h11.666c.7 0 1.167-.467 1.167-1.167s-.467-1.167-1.166-1.167zM49 39.678c0-.7-.467-1.167-1.166-1.167h-4.667c-.7 0-1.167.467-1.167 1.167s.467 1.166 1.167 1.166h4.666c.7 0 1.167-.466 1.167-1.166zm5.834 3.5H45.5c-.7 0-1.166.467-1.166 1.166 0 .7.466 1.167 1.166 1.167h9.334c.7 0 1.166-.467 1.166-1.167s-.467-1.166-1.166-1.166zM16.333 12.845c.117 0 .35 0 .467-.117 6.65-3.267 11.9-4.55 18.2-4.55 5.458 0 10.128.964 15.602 3.345L45.5 13.194c-.583.234-.933.817-.7 1.4a1.12 1.12 0 001.05.817c.117 0 .233 0 .35-.117l7.555-2.48c.415-.03.8-.266.962-.67a.934.934 0 00.087-.413c.01-.25-.054-.495-.184-.698l-2.47-7.522c-.233-.583-.817-.933-1.4-.816-.583.233-.933.933-.7 1.516l1.744 5.323C45.94 6.94 40.88 5.844 35 5.844c-6.65 0-12.25 1.4-19.133 4.784-.584.233-.817.933-.584 1.517.234.466.584.7 1.05.7zM53.2 57.294c-6.65 3.267-11.9 4.55-18.2 4.55-5.424 0-10.07-.952-15.501-3.302l5.234-1.714c.584-.234.934-.934.7-1.517-.233-.583-.933-.933-1.516-.7L16.1 57.178c-.13.043-.243.102-.341.172-.21.113-.381.291-.476.528a1.23 1.23 0 00.097 1.111l2.47 7.522a1.12 1.12 0 001.05.817h.583c.584-.234.934-.934.7-1.517l-1.704-5.202c5.738 2.507 10.732 3.569 16.521 3.569 6.65 0 12.25-1.4 19.133-4.784.584-.233.817-.933.584-1.517-.234-.583-.934-.816-1.517-.583z" fill="#877BE3"/></svg>