<svg width="75" height="23" fill="none" xmlns="http://www.w3.org/2000/svg"><path d="M5.154 18.045h8.95V22H.013V.672h5.141v17.373zm28.243-6.27c0 2.08-.386 3.921-1.158 5.523-.771 1.601-1.87 2.837-3.296 3.706-1.416.86-3.032 1.289-4.848 1.289-1.817 0-3.428-.415-4.834-1.245-1.406-.84-2.505-2.036-3.296-3.589-.781-1.553-1.192-3.335-1.23-5.347v-1.2c0-2.09.38-3.932 1.142-5.523.771-1.602 1.87-2.837 3.296-3.706C20.608.813 22.239.379 24.065.379c1.807 0 3.418.43 4.834 1.289 1.416.86 2.515 2.085 3.296 3.677.791 1.582 1.192 3.398 1.202 5.449v.981zm-5.23-.893c0-2.12-.357-3.726-1.07-4.82-.703-1.103-1.713-1.655-3.032-1.655-2.578 0-3.94 1.934-4.087 5.801l-.014 1.567c0 2.09.347 3.697 1.04 4.82.693 1.123 1.723 1.684 3.09 1.684 1.3 0 2.3-.552 3.004-1.655.703-1.103 1.06-2.69 1.069-4.76v-.982zm25.342 8.481c-.791.88-1.949 1.587-3.472 2.124-1.523.537-3.193.806-5.01.806-2.793 0-5.024-.854-6.694-2.563-1.67-1.71-2.563-4.087-2.68-7.134l-.015-1.846c0-2.1.37-3.93 1.113-5.493.742-1.572 1.802-2.778 3.179-3.618C41.316.789 42.918.364 44.734.364c2.657 0 4.717.61 6.182 1.831 1.475 1.211 2.334 3.023 2.578 5.435h-4.951c-.176-1.192-.557-2.041-1.143-2.549-.585-.508-1.416-.762-2.49-.762-1.289 0-2.285.547-2.988 1.641-.703 1.094-1.06 2.656-1.07 4.688v1.289c0 2.128.362 3.73 1.085 4.804.732 1.065 1.88 1.597 3.442 1.597 1.338 0 2.334-.298 2.988-.894v-3.31h-3.574v-3.53h8.716v8.76zm21.05-7.588c0 2.08-.386 3.921-1.158 5.523-.771 1.601-1.87 2.837-3.295 3.706-1.416.86-3.033 1.289-4.85 1.289-1.816 0-3.427-.415-4.833-1.245-1.406-.84-2.505-2.036-3.296-3.589-.781-1.553-1.192-3.335-1.23-5.347v-1.2c0-2.09.38-3.932 1.142-5.523.771-1.602 1.87-2.837 3.296-3.706C61.77.813 63.401.379 65.228.379c1.806 0 3.418.43 4.834 1.289 1.416.86 2.514 2.085 3.295 3.677.791 1.582 1.192 3.398 1.202 5.449v.981zm-5.23-.893c0-2.12-.356-3.726-1.07-4.82-.702-1.103-1.713-1.655-3.031-1.655-2.579 0-3.94 1.934-4.087 5.801l-.015 1.567c0 2.09.347 3.697 1.04 4.82.693 1.123 1.724 1.684 3.09 1.684 1.3 0 2.3-.552 3.004-1.655.703-1.103 1.06-2.69 1.07-4.76v-.982z" fill="#fff"/></svg>