<svg width="296" height="667" viewBox="0 0 296 667" fill="none" xmlns="http://www.w3.org/2000/svg">
<mask id="mask0" mask-type="alpha" maskUnits="userSpaceOnUse" x="0" y="0" width="296" height="667">
<rect width="296" height="667" fill="#C4C4C4"/>
</mask>
<g mask="url(#mask0)">
<rect width="296" height="673" fill="url(#paint0_linear)"/>
<circle cx="94.5" cy="80.5" r="312.5" fill="white" fill-opacity="0.11"/>
<circle cx="98" cy="427" r="3" fill="white" fill-opacity="0.11"/>
<circle cx="269" cy="120" r="3" fill="white" fill-opacity="0.11"/>
<circle cx="129" cy="348" r="3" fill="white" fill-opacity="0.11"/>
<circle cx="169" cy="166" r="3" fill="white" fill-opacity="0.11"/>
<circle cx="23" cy="83" r="3" fill="white" fill-opacity="0.11"/>
<circle cx="201" cy="517" r="3" fill="white" fill-opacity="0.11"/>
<circle cx="60" cy="608" r="3" fill="white" fill-opacity="0.11"/>
<circle cx="57" cy="548" r="3" fill="white" fill-opacity="0.11"/>
<circle cx="12" cy="433" r="3" fill="white" fill-opacity="0.11"/>
<circle cx="263" cy="288" r="3" fill="white" fill-opacity="0.11"/>
<circle cx="60" cy="251" r="3" fill="white" fill-opacity="0.11"/>
<circle cx="20" cy="177" r="3" fill="white" fill-opacity="0.11"/>
<circle cx="104" cy="77" r="3" fill="white" fill-opacity="0.11"/>
<circle cx="104" cy="15" r="3" fill="white" fill-opacity="0.11"/>
<circle cx="81.5" cy="-79.5" r="312.5" fill="white" fill-opacity="0.11"/>
<circle cx="-25.5" cy="-179.5" r="312.5" fill="white" fill-opacity="0.11"/>
</g>
<defs>
<linearGradient id="paint0_linear" x1="-4.87897e-07" y1="69.4314" x2="248.963" y2="88.1076" gradientUnits="userSpaceOnUse">
<stop stop-color="#DF6598"/>
<stop offset="1" stop-color="#857BE4"/>
</linearGradient>
</defs>
</svg>
