<svg width="70" height="70" fill="none" xmlns="http://www.w3.org/2000/svg"><g clip-path="url(#clip0)" fill="#6FA8B3"><path d="M60.026 29.76a1.025 1.025 0 10-1.019 1.78c5.679 3.25 8.806 7.44 8.806 11.8 0 8.474-11.943 15.87-27.781 17.205a1.026 1.026 0 00.172 2.043c8.083-.681 15.512-2.927 20.92-6.324 5.636-3.54 8.74-8.13 8.74-12.924 0-5.126-3.494-9.95-9.838-13.58zM35.72 62.347l.017-.027.04-.069.014-.03a.93.93 0 00.064-.18l.009-.031c.006-.028.01-.055.014-.083l.004-.029a1.104 1.104 0 000-.225c0-.01-.003-.02-.005-.029a1 1 0 00-.013-.082l-.009-.032a.968.968 0 00-.064-.18l-.015-.03a1.144 1.144 0 00-.039-.07l-.017-.026a.977.977 0 00-.138-.169l-.023-.021a1.136 1.136 0 00-.06-.052l-.01-.01-5.387-4.138a1.026 1.026 0 00-1.249 1.627l2.89 2.22c-7.725-.384-14.883-2.196-20.414-5.199-6.072-3.296-9.415-7.608-9.415-12.142 0-4.36 3.127-8.55 8.806-11.8a1.026 1.026 0 00-1.02-1.78C3.357 33.39-.137 38.214-.137 43.34c0 5.32 3.725 10.273 10.488 13.944 5.866 3.185 13.442 5.09 21.583 5.46l-3.08 2.366a1.025 1.025 0 101.248 1.627l5.386-4.138.01-.01a1.04 1.04 0 00.061-.052l.023-.02a.968.968 0 00.139-.17z"/><path d="M14.241 38.643l20.157 10.27.033.014.048.021c.025.01.052.02.078.028l.047.014a.972.972 0 00.088.018c.014.003.027.006.04.007a1.07 1.07 0 00.261 0c.014-.001.028-.004.042-.007a.825.825 0 00.087-.018l.048-.014.078-.028.048-.021.033-.015 20.156-10.269c.344-.175.56-.528.56-.913v-4.12a1.025 1.025 0 10-2.05 0v3.492l-18.106 9.224V25.473l18.105-9.224v13.26a1.026 1.026 0 002.051 0V14.575a.987.987 0 00-.01-.137l-.008-.046a.968.968 0 00-.019-.087l-.017-.052a.77.77 0 00-.028-.076c-.007-.018-.016-.035-.024-.052a.918.918 0 00-.036-.068l-.032-.05a.977.977 0 00-.044-.061l-.038-.046a.96.96 0 00-.206-.18l-.028-.019-.038-.02-.032-.02L35.328 3.394a1.025 1.025 0 00-.93 0l-2.9 1.477a1.026 1.026 0 00.93 1.828l2.435-1.241 17.898 9.119-1.12.571-16.778 8.547-16.777-8.547-1.12-.572 11.796-6.01a1.025 1.025 0 10-.93-1.827l-13.59 6.924-.032.019-.039.02c-.01.006-.018.013-.027.02a.826.826 0 00-.11.083.874.874 0 00-.135.142.977.977 0 00-.043.061l-.033.05-.035.068a1.088 1.088 0 00-.025.052.977.977 0 00-.027.076l-.017.051a.998.998 0 00-.019.089l-.009.045a1.07 1.07 0 00-.01.137v7.831a1.025 1.025 0 102.051 0V16.25l18.106 9.224v20.853l-18.106-9.224V26.508a1.025 1.025 0 10-2.05 0V37.73c0 .385.216.738.56.913z"/></g><defs><clipPath id="clip0"><path fill="#fff" d="M0 0h70v70H0z"/></clipPath></defs></svg>